<?xml version="1.0" encoding="UTF-8"?>
<svg version="1.1" xmlns="http://www.w3.org/2000/svg" width="434" height="410">
<path d="M0 0 C143.22 0 286.44 0 434 0 C434 135.3 434 270.6 434 410 C290.78 410 147.56 410 0 410 C0 274.7 0 139.4 0 0 Z " fill="#0D0D0E" transform="translate(0,0)"/>
<path d="M0 0 C23.67024462 -1.27373514 49.0382497 5.75668367 66.9296875 21.77734375 C68.95173557 23.22141555 68.95173557 23.22141555 71.453125 22.91796875 C74.45384644 21.83642038 76.39326529 20.37739654 78.875 18.375 C94.22055661 6.89151118 115.21314186 -0.16626931 134.3359375 -0.04296875 C136.21224854 -0.03366333 136.21224854 -0.03366333 138.12646484 -0.02416992 C139.54886475 -0.01220581 139.54886475 -0.01220581 141 0 C141.02312079 13.28187409 141.04091374 26.56374343 141.05181217 39.84563351 C141.05704158 46.0122492 141.06414027 52.17885118 141.07543945 58.34545898 C141.08626629 64.29116006 141.0922764 70.23684789 141.09487724 76.18255806 C141.09673186 78.45646943 141.10035317 80.73038004 141.10573006 83.00428581 C141.11293778 86.1772712 141.11399106 89.35020117 141.11352539 92.52319336 C141.11712067 93.47337341 141.12071594 94.42355347 141.12442017 95.40252686 C141.11405216 101.88594784 141.11405216 101.88594784 140 103 C138.02570322 103.29603803 136.05039827 103.58644775 134.07128906 103.84838867 C114.21835984 106.53189575 95.65542535 113.22006094 80 126 C80.71542969 125.63648438 81.43085938 125.27296875 82.16796875 124.8984375 C85.43726587 123.24898617 88.71667679 121.62134858 92 120 C93.03253906 119.48566406 94.06507813 118.97132813 95.12890625 118.44140625 C111.0432341 110.77305053 128.25683398 106 146 106 C146 74.98 146 43.96 146 12 C147.98 12 149.96 12 152 12 C152 45.33 152 78.66 152 113 C143.09 113.99 134.18 114.98 125 116 C117.92049621 117.56112135 110.97640177 119.10822117 104 121 C105.24007812 120.7834375 106.48015625 120.566875 107.7578125 120.34375 C124.41701824 117.72483556 138.55017897 118 156 118 C156 86.65 156 55.3 156 23 C158.31 23 160.62 23 163 23 C163.0231209 36.15149024 163.04091379 49.30297569 163.05181217 62.45448208 C163.05704156 68.56056369 163.0641402 74.66663144 163.07543945 80.77270508 C163.08626637 86.66005147 163.09227642 92.54738449 163.09487724 98.43474007 C163.09673185 100.68632277 163.10035313 102.93790469 163.10573006 105.18948174 C163.11293789 108.33133427 163.11399105 111.47313083 163.11352539 114.61499023 C163.11712067 115.55581955 163.12071594 116.49664886 163.12442017 117.46598816 C163.11405216 123.88594784 163.11405216 123.88594784 162 125 C159.71346879 125.1353191 157.42295541 125.20388372 155.1328125 125.24609375 C153.68448154 125.27741047 152.2361582 125.30908135 150.7878418 125.34106445 C150.02627777 125.35642242 149.26471375 125.3717804 148.48007202 125.38760376 C135.25022825 125.66790069 122.1025395 126.01044826 109 128 C108.09878418 128.13277344 107.19756836 128.26554688 106.26904297 128.40234375 C103.38181374 128.84211717 100.50359105 129.31952801 97.625 129.8125 C96.73772217 129.95341064 95.85044434 130.09432129 94.9362793 130.23950195 C89.45309732 131.25588889 86.67222873 132.55868186 83 137 C78.29116213 140.85268553 74.04878654 142.429863 68 142 C63.74098227 140.72304583 60.76981589 139.08836039 58.1875 135.4375 C52.56396615 129.17127656 40.0329908 128.99504724 32.0625 127.875 C30.84208008 127.70250732 29.62166016 127.53001465 28.36425781 127.35229492 C16.07656595 125.76527548 3.79700875 125.41532736 -8.58178711 125.23974609 C-9.71278084 125.22271385 -9.71278084 125.22271385 -10.86662292 125.20533752 C-12.92499901 125.17743344 -14.98350123 125.15933105 -17.04199219 125.1418457 C-20 125 -20 125 -21 124 C-21.09534958 120.86440114 -21.12550879 117.75086387 -21.11352539 114.61499023 C-21.11367142 113.62973358 -21.11381744 112.64447693 -21.1139679 111.62936401 C-21.11326832 108.35575193 -21.10547385 105.08219596 -21.09765625 101.80859375 C-21.09579223 99.54557832 -21.09436825 97.28256249 -21.09336853 95.01954651 C-21.0895421 89.05021052 -21.07971075 83.08089868 -21.06866455 77.11157227 C-21.05845312 71.02555671 -21.05387149 64.93953727 -21.04882812 58.85351562 C-21.03808859 46.90233311 -21.02101068 34.95116856 -21 23 C-18.03 23 -15.06 23 -12 23 C-11.67 19.37 -11.34 15.74 -11 12 C-8.36 12 -5.72 12 -3 12 C-2.67 10.35 -2.34 8.7 -2 7 C-1.34 7 -0.68 7 0 7 C0 4.69 0 2.38 0 0 Z " fill="#18171E" transform="translate(137,126)"/>
<path d="M0 0 C2.22921808 -0.01802764 4.4584786 -0.03085405 6.68774414 -0.04150391 C8.5498629 -0.05306015 8.5498629 -0.05306015 10.44960022 -0.06484985 C14.93181762 0.01702012 19.08033529 0.62415965 23.4375 1.625 C24.23607422 1.8017627 25.03464844 1.97852539 25.85742188 2.16064453 C40.46654306 5.58011015 54.68940882 11.71237938 65.9296875 21.77734375 C67.95173557 23.22141555 67.95173557 23.22141555 70.453125 22.91796875 C73.45384644 21.83642038 75.39326529 20.37739654 77.875 18.375 C93.22055661 6.89151118 114.21314186 -0.16626931 133.3359375 -0.04296875 C135.21224854 -0.03366333 135.21224854 -0.03366333 137.12646484 -0.02416992 C138.54886475 -0.01220581 138.54886475 -0.01220581 140 0 C140.02312079 13.28187409 140.04091374 26.56374343 140.05181217 39.84563351 C140.05704158 46.0122492 140.06414027 52.17885118 140.07543945 58.34545898 C140.08626629 64.29116006 140.0922764 70.23684789 140.09487724 76.18255806 C140.09673186 78.45646943 140.10035317 80.73038004 140.10573006 83.00428581 C140.11293778 86.1772712 140.11399106 89.35020117 140.11352539 92.52319336 C140.11712067 93.47337341 140.12071594 94.42355347 140.12442017 95.40252686 C140.11405216 101.88594784 140.11405216 101.88594784 139 103 C137.02527066 103.29610289 135.04954746 103.58664179 133.07006836 103.84912109 C119.25379263 105.71353139 105.94652612 109.29077423 93.75 116.21484375 C93.1725 116.47394531 92.595 116.73304688 92 117 C91.34 116.67 90.68 116.34 90 116 C105.34877449 107.77452644 121.28632303 101 139 101 C139 84.5 139 68 139 51 C133.72 52.32 128.44 53.64 123 55 C122.01 55 121.02 55 120 55 C120 60.61 120 66.22 120 72 C118.68 72 117.36 72 116 72 C116 67.05 116 62.1 116 57 C115.01 57 114.02 57 113 57 C113 65.25 113 73.5 113 82 C111.02 82 109.04 82 107 82 C106.505 87.94 106.505 87.94 106 94 C104.68 94 103.36 94 102 94 C102 82.78 102 71.56 102 60 C101.01 60 100.02 60 99 60 C99 63.63 99 67.26 99 71 C97.02 70.505 97.02 70.505 95 70 C95 67.36 95 64.72 95 62 C94.01 62 93.02 62 92 62 C92 65.3 92 68.6 92 72 C90.02 71.505 90.02 71.505 88 71 C88 68.69 88 66.38 88 64 C87.01 64 86.02 64 85 64 C85 69.61 85 75.22 85 81 C83.02 80.505 83.02 80.505 81 80 C81 75.05 81 70.1 81 65 C80.01 65 79.02 65 78 65 C78 78.53 78 92.06 78 106 C76.02 105.505 76.02 105.505 74 105 C73.67 89.82 73.34 74.64 73 59 C72.67 66.26 72.34 73.52 72 81 C70.68 81 69.36 81 68 81 C64.19941525 77.19941525 66.35752894 70.36293408 66 65 C65.67 75.56 65.34 86.12 65 97 C63.68 97 62.36 97 61 97 C61 86.44 61 75.88 61 65 C60.01 65 59.02 65 58 65 C58.05220703 66.69769531 58.05220703 66.69769531 58.10546875 68.4296875 C58.13360336 69.91144353 58.16090387 71.39321556 58.1875 72.875 C58.21263672 73.62136719 58.23777344 74.36773437 58.26367188 75.13671875 C58.29296875 77.3046875 58.29296875 77.3046875 58 81 C57.01 81.66 56.02 82.32 55 83 C54 82 54 82 53.88647461 80.14233398 C53.89171143 79.35157471 53.89694824 78.56081543 53.90234375 77.74609375 C53.90556641 76.89208984 53.90878906 76.03808594 53.91210938 75.15820312 C53.92467773 73.81145508 53.92467773 73.81145508 53.9375 72.4375 C53.94201172 71.53580078 53.94652344 70.63410156 53.95117188 69.70507812 C53.96299775 67.46998686 53.9794778 65.23502563 54 63 C53.01 63 52.02 63 51 63 C51 64.98 51 66.96 51 69 C49.68 69 48.36 69 47 69 C46.67 65.37 46.34 61.74 46 58 C45.67 58 45.34 58 45 58 C44.67 61.96 44.34 65.92 44 70 C42.68 69.67 41.36 69.34 40 69 C40 65.7 40 62.4 40 59 C39.01 59 38.02 59 37 59 C37 70.88 37 82.76 37 95 C35.68 94.34 34.36 93.68 33 93 C33 81.12 33 69.24 33 57 C32.01 57 31.02 57 30 57 C30 65.25 30 73.5 30 82 C29.01 82 28.02 82 27 82 C27 73.42 27 64.84 27 56 C25.68 56 24.36 56 23 56 C23 61.61 23 67.22 23 73 C19 72 19 72 17 70 C16.01 70 15.02 70 14 70 C12.97164637 66.91493912 12.86631566 64.7305728 12.875 61.5 C12.87113281 60.06140625 12.87113281 60.06140625 12.8671875 58.59375 C13 56 13 56 14 53 C9.71 52.34 5.42 51.68 1 51 C1 67.5 1 84 1 101 C4.96 101.33 8.92 101.66 13 102 C25.98434222 104.51934998 38.62798163 109.26962178 50 116 C49.01 116.495 49.01 116.495 48 117 C45.67275081 116.00346768 43.44527562 114.94867819 41.1875 113.8125 C30.13685795 108.49533365 19.29870999 105.65999768 7.18261719 103.95019531 C1.08976369 103.08976369 1.08976369 103.08976369 0 102 C-0.09536242 98.83387337 -0.12550636 95.68959372 -0.11352539 92.52319336 C-0.11374443 91.03067802 -0.11374443 91.03067802 -0.1139679 89.50801086 C-0.11326831 86.20193338 -0.10547379 82.89591146 -0.09765625 79.58984375 C-0.09579223 77.30440807 -0.09436825 75.01897199 -0.09336853 72.73353577 C-0.08954207 66.70501613 -0.0797107 60.67652041 -0.06866455 54.64801025 C-0.05845317 48.50167159 -0.0538715 42.35532907 -0.04882812 36.20898438 C-0.03808854 24.13931238 -0.0210106 12.06965818 0 0 Z " fill="#653D92" transform="translate(138,126)"/>
<path d="M0 0 C2.31 0 4.62 0 7 0 C7 31.02 7 62.04 7 94 C13.93 94.495 13.93 94.495 21 95 C39.64095979 97.4986436 55.72138941 104.91589374 72 114 C71.67 113.01 71.34 112.02 71 111 C74.43595166 112.52708963 77.11912454 114.59927045 80 117 C80.33 115.02 80.66 113.04 81 111 C81.33 111 81.66 111 82 111 C82.495 114.465 82.495 114.465 83 118 C83.99 117.01 84.98 116.02 86 115 C86.66 115.33 87.32 115.66 88 116 C87.34 116.99 86.68 117.98 86 119 C86.4640625 118.5875 86.928125 118.175 87.40625 117.75 C106.72467629 101.60325563 132.57130187 95.62857988 157 94 C157 62.98 157 31.96 157 0 C158.98 0 160.96 0 163 0 C163 33.33 163 66.66 163 101 C154.09 101.99 145.18 102.98 136 104 C128.92049621 105.56112135 121.97640177 107.10822117 115 109 C116.24007812 108.7834375 117.48015625 108.566875 118.7578125 108.34375 C135.41701824 105.72483556 149.55017897 106 167 106 C167 74.65 167 43.3 167 11 C169.31 11 171.62 11 174 11 C174.0231209 24.15149024 174.04091379 37.30297569 174.05181217 50.45448208 C174.05704156 56.56056369 174.0641402 62.66663144 174.07543945 68.77270508 C174.08626637 74.66005147 174.09227642 80.54738449 174.09487724 86.43474007 C174.09673185 88.68632277 174.10035313 90.93790469 174.10573006 93.18948174 C174.11293789 96.33133427 174.11399105 99.47313083 174.11352539 102.61499023 C174.11712067 103.55581955 174.12071594 104.49664886 174.12442017 105.46598816 C174.11405216 111.88594784 174.11405216 111.88594784 173 113 C170.71346879 113.1353191 168.42295541 113.20388372 166.1328125 113.24609375 C164.68448154 113.27741047 163.2361582 113.30908135 161.7878418 113.34106445 C161.02627777 113.35642242 160.26471375 113.3717804 159.48007202 113.38760376 C146.25022825 113.66790069 133.1025395 114.01044826 120 116 C119.09878418 116.13277344 118.19756836 116.26554687 117.26904297 116.40234375 C114.38181374 116.84211717 111.50359105 117.31952801 108.625 117.8125 C107.73772217 117.95341064 106.85044434 118.09432129 105.9362793 118.23950195 C100.45309732 119.25588889 97.67222873 120.55868186 94 125 C89.29116213 128.85268553 85.04878654 130.429863 79 130 C74.74098227 128.72304583 71.76981589 127.08836039 69.1875 123.4375 C63.56396615 117.17127656 51.0329908 116.99504724 43.0625 115.875 C41.84208008 115.70250732 40.62166016 115.53001465 39.36425781 115.35229492 C27.07656595 113.76527548 14.79700875 113.41532736 2.41821289 113.23974609 C1.28721916 113.22271385 1.28721916 113.22271385 0.13337708 113.20533752 C-1.92499901 113.17743344 -3.98350123 113.15933105 -6.04199219 113.1418457 C-9 113 -9 113 -10 112 C-10.09534958 108.86440114 -10.12550879 105.75086387 -10.11352539 102.61499023 C-10.11367142 101.62973358 -10.11381744 100.64447693 -10.1139679 99.62936401 C-10.11326832 96.35575193 -10.10547385 93.08219596 -10.09765625 89.80859375 C-10.09579223 87.54557832 -10.09436825 85.28256249 -10.09336853 83.01954651 C-10.0895421 77.05021052 -10.07971075 71.08089868 -10.06866455 65.11157227 C-10.05845312 59.02555671 -10.05387149 52.93953727 -10.04882812 46.85351562 C-10.03808859 34.90233311 -10.02101068 22.95116856 -10 11 C-7.03 11 -4.06 11 -1 11 C-0.67 7.37 -0.34 3.74 0 0 Z " fill="#171227" transform="translate(126,138)"/>
<path d="M0 0 C0.33 0 0.66 0 1 0 C1 33.33 1 66.66 1 101 C7.27 101.33 13.54 101.66 20 102 C32.01290435 103.75370866 43.38234803 106.56226205 55 110 C54.67 110.66 54.34 111.32 54 112 C54.61520508 112.20157715 55.23041016 112.4031543 55.86425781 112.61083984 C58.66055921 113.52905198 61.45528393 114.45197451 64.25 115.375 C65.21808594 115.69210938 66.18617188 116.00921875 67.18359375 116.3359375 C68.58544922 116.8 68.58544922 116.8 70.015625 117.2734375 C70.87446289 117.55622559 71.73330078 117.83901367 72.61816406 118.13037109 C75 119 75 119 77.18652344 120.10717773 C79.40143943 121.1976392 80.58690592 121.07868517 83 120.6875 C84.04220703 120.53087891 84.04220703 120.53087891 85.10546875 120.37109375 C87.09156285 120.02137797 87.09156285 120.02137797 89.3125 119.25 C89.869375 119.1675 90.42625 119.085 91 119 C92.75 120.4375 92.75 120.4375 94 122 C93.08780985 125.75011505 92.28530499 126.82532347 88.9375 128.875 C84.52852275 130.48243962 80.48943637 130.20648473 76 129 C72.58871589 127.16315471 70.40782562 125.50369214 67.97265625 122.49609375 C63.81996193 119.00914017 59.95347697 118.60003756 54.6875 117.8125 C53.79482422 117.66103516 52.90214844 117.50957031 51.98242188 117.35351562 C48.99320619 116.86055725 45.99964239 116.42489073 43 116 C41.80125244 115.82267334 40.60250488 115.64534668 39.36743164 115.46264648 C28.92461398 114.01994449 18.59488158 113.60967113 8.0625 113.4375 C5.61232677 113.39345032 3.16227727 113.34695663 0.71226501 113.29469299 C-0.79450302 113.26288399 -2.30138376 113.23594854 -3.80833435 113.21446228 C-8.88795985 113.11204015 -8.88795985 113.11204015 -10 112 C-10.09534958 108.86440114 -10.12550879 105.75086387 -10.11352539 102.61499023 C-10.11367142 101.62973358 -10.11381744 100.64447693 -10.1139679 99.62936401 C-10.11326832 96.35575193 -10.10547385 93.08219596 -10.09765625 89.80859375 C-10.09579223 87.54557832 -10.09436825 85.28256249 -10.09336853 83.01954651 C-10.0895421 77.05021052 -10.07971075 71.08089868 -10.06866455 65.11157227 C-10.05845312 59.02555671 -10.05387149 52.93953727 -10.04882812 46.85351562 C-10.03808859 34.90233311 -10.02101068 22.95116856 -10 11 C-7.03 11 -4.06 11 -1 11 C-0.67 7.37 -0.34 3.74 0 0 Z " fill="#151221" transform="translate(126,138)"/>
<path d="M0 0 C1.98 0 3.96 0 6 0 C6 31.02 6 62.04 6 94 C12.93 94.495 12.93 94.495 20 95 C38.64095979 97.4986436 54.72138941 104.91589374 71 114 C70.67 113.01 70.34 112.02 70 111 C73.43595166 112.52708963 76.11912454 114.59927045 79 117 C79.33 115.02 79.66 113.04 80 111 C80.33 111 80.66 111 81 111 C81.495 114.465 81.495 114.465 82 118 C82.99 117.01 83.98 116.02 85 115 C85.66 115.33 86.32 115.66 87 116 C86.34 116.99 85.68 117.98 85 119 C85.58007812 118.52949219 86.16015625 118.05898438 86.7578125 117.57421875 C95.58181351 110.54122784 95.58181351 110.54122784 100 109 C102.375 109.8125 102.375 109.8125 104 111 C104 111.99 104 112.98 104 114 C100.65623844 115.38091376 97.29872225 116.72471121 93.9375 118.0625 C92.99455078 118.45244141 92.05160156 118.84238281 91.08007812 119.24414062 C82.33433698 122.68758575 76.66347931 121.51415856 68.1875 118.125 C62.1940533 115.79746139 56.20669323 113.70087266 50 112 C50.33 111.34 50.66 110.68 51 110 C37.70176161 106.03248312 24.60566716 103.76051572 10.80981445 102.30957031 C7.20202808 101.91208373 3.60158845 101.45019856 0 101 C0 67.67 0 34.34 0 0 Z " fill="#925BC3" transform="translate(127,138)"/>
<path d="M0 0 C2.31 0 4.62 0 7 0 C7 31.02 7 62.04 7 94 C12.28 94 17.56 94 23 94 C26.71265393 94.21080533 30.36831118 94.45136156 34.0625 94.8125 C34.98498535 94.89870605 35.9074707 94.98491211 36.85791016 95.07373047 C44.69981586 95.85996498 52.32665821 97.20716313 60 99 C60 99.33 60 99.66 60 100 C53.58644653 99.5384185 47.24173304 98.90567115 40.875 98 C29.30411947 96.69623881 17.63549724 96.44751912 6 96 C6 75.21 6 54.42 6 33 C4.68 33 3.36 33 2 33 C2 55.11 2 77.22 2 100 C11.9 100 21.8 100 32 100 C40.41949606 100.7980565 48.67371877 101.64963792 57 103 C57.93602051 103.14985352 58.87204102 103.29970703 59.83642578 103.45410156 C62.48164088 103.89473686 65.11577385 104.3731449 67.75 104.875 C68.51852295 105.01196289 69.2870459 105.14892578 70.07885742 105.29003906 C75.14238909 106.35218207 77.6629295 108.10574169 81 112 C85.52524397 115.89381458 88.81354787 116.50014767 94.5859375 116.2734375 C97.58208097 115.9340685 100.22424213 115.16874015 103 114 C100.60633973 116.77160662 98.55491039 118.07263207 95 119 C88.9218031 119.11235114 84.77961575 117.9105947 80 114 C79.33097656 113.17371094 78.66195312 112.34742188 77.97265625 111.49609375 C73.81996193 108.00914017 69.95347697 107.60003756 64.6875 106.8125 C63.79482422 106.66103516 62.90214844 106.50957031 61.98242188 106.35351562 C58.99320619 105.86055725 55.99964239 105.42489073 53 105 C51.80125244 104.82267334 50.60250488 104.64534668 49.36743164 104.46264648 C38.92461398 103.01994449 28.59488158 102.60967113 18.0625 102.4375 C15.61232677 102.39345032 13.16227727 102.34695663 10.71226501 102.29469299 C9.20549698 102.26288399 7.69861624 102.23594854 6.19166565 102.21446228 C1.11204015 102.11204015 1.11204015 102.11204015 0 101 C-0.09534958 97.86440114 -0.12550879 94.75086387 -0.11352539 91.61499023 C-0.11367142 90.62973358 -0.11381744 89.64447693 -0.1139679 88.62936401 C-0.11326832 85.35575193 -0.10547385 82.08219596 -0.09765625 78.80859375 C-0.09579223 76.54557832 -0.09436825 74.28256249 -0.09336853 72.01954651 C-0.0895421 66.05021052 -0.07971075 60.08089868 -0.06866455 54.11157227 C-0.05845312 48.02555671 -0.05387149 41.93953727 -0.04882812 35.85351562 C-0.03808859 23.90233311 -0.02101068 11.95116856 0 0 Z " fill="#8754BA" transform="translate(116,149)"/>
<path d="M0 0 C2.31 0 4.62 0 7 0 C7.0231209 13.15149024 7.04091379 26.30297569 7.05181217 39.45448208 C7.05704156 45.56056369 7.0641402 51.66663144 7.07543945 57.77270508 C7.08626637 63.66005147 7.09227642 69.54738449 7.09487724 75.43474007 C7.09673185 77.68632277 7.10035313 79.93790469 7.10573006 82.18948174 C7.11293789 85.33133427 7.11399105 88.47313083 7.11352539 91.61499023 C7.11712067 92.55581955 7.12071594 93.49664886 7.12442017 94.46598816 C7.11405216 100.88594784 7.11405216 100.88594784 6 102 C3.71346879 102.1353191 1.42295541 102.20388372 -0.8671875 102.24609375 C-2.31551846 102.27741047 -3.7638418 102.30908135 -5.2121582 102.34106445 C-5.97372223 102.35642242 -6.73528625 102.3717804 -7.51992798 102.38760376 C-20.74909011 102.66788625 -33.89848566 103.00677816 -47 105 C-47.89589844 105.13277344 -48.79179687 105.26554687 -49.71484375 105.40234375 C-52.58652411 105.8426421 -55.44937352 106.31981033 -58.3125 106.8125 C-59.19139893 106.95341064 -60.07029785 107.09432129 -60.97583008 107.23950195 C-66.68802656 108.30245563 -69.85325585 109.90737323 -74 114 C-72.92598892 111.08482708 -72.22189824 109.22189824 -70 107 C-68.17504883 106.4375 -68.17504883 106.4375 -65.95703125 106 C-64.72859497 105.75407104 -64.72859497 105.75407104 -63.4753418 105.50317383 C-62.596604 105.33712646 -61.71786621 105.1710791 -60.8125 105 C-59.90991455 104.82557373 -59.0073291 104.65114746 -58.07739258 104.47143555 C-36.92439305 100.46485926 -16.6855011 100 5 100 C5 77.56 5 55.12 5 32 C3.68 32 2.36 32 1 32 C1 53.12 1 74.24 1 96 C-7.58 96.33 -16.16 96.66 -25 97 C-35.055719 97.90243632 -44.41961713 99.07746952 -54.1796875 101.51171875 C-56.91420411 101.98514614 -58.4221807 101.92776588 -61 101 C-40.27521747 94.8659408 -22.45788129 95 0 95 C0 63.65 0 32.3 0 0 Z " fill="#8856B9" transform="translate(293,149)"/>
<path d="M0 0 C1.98 0 3.96 0 6 0 C6 33.33 6 66.66 6 101 C-2.91 101.99 -11.82 102.98 -21 104 C-25.61758974 104.9780069 -29.953317 105.92753515 -34.4375 107.25 C-36.39218391 107.80520663 -38.34914506 108.35247594 -40.30859375 108.890625 C-41.12126709 109.12813477 -41.93394043 109.36564453 -42.77124023 109.61035156 C-45.19119177 110.03342557 -46.68963827 109.77067137 -49 109 C-38.61627695 105.75548011 -28.27167759 102.75964932 -17.5 101.125 C-16.3567627 100.94553833 -16.3567627 100.94553833 -15.19042969 100.76245117 C-8.32171497 99.80878931 -2.11238132 100 5 100 C5 81.52 5 63.04 5 44 C3.68 44 2.36 44 1 44 C1.00222061 44.63671127 1.00444122 45.27342255 1.00672913 45.9294281 C1.0287804 52.53115276 1.04390593 59.13286704 1.05493164 65.73461914 C1.05997356 68.20142033 1.06680691 70.66821852 1.07543945 73.13500977 C1.08751125 76.67204529 1.09322956 80.20904145 1.09765625 83.74609375 C1.10281754 84.85649521 1.10797882 85.96689667 1.11329651 87.11094666 C1.11337204 88.13192947 1.11344757 89.15291229 1.11352539 90.20483398 C1.115746 91.10862289 1.11796661 92.0124118 1.12025452 92.94358826 C1 95 1 95 0 96 C-1.83962029 96.19633998 -3.68014555 96.3862344 -5.5234375 96.54443359 C-19.13669615 97.73446306 -32.74865138 100.57883332 -45.1875 106.3984375 C-47 107 -47 107 -50 106 C-42.05251076 102.11307669 -34.15681501 99.27979011 -25.5625 97.1875 C-24.74241455 96.9810083 -23.9223291 96.7745166 -23.07739258 96.56176758 C-15.22976217 94.74502397 -8.32494636 94.55499642 0 94 C0 62.98 0 31.96 0 0 Z " fill="#8F5ABF" transform="translate(283,138)"/>
<path d="M0 0 C1.32 0 2.64 0 4 0 C4.33 17.49 4.66 34.98 5 53 C10.94 53.66 16.88 54.32 23 55 C33.13443361 57.20976372 42.45365493 60.01145857 52 64 C51.67 64.66 51.34 65.32 51 66 C46.12059588 65.03679961 41.24565288 64.06220031 36.38671875 63 C35.61134766 62.835 34.83597656 62.67 34.03710938 62.5 C32.51178527 62.175409 30.98818907 61.84254741 29.46679688 61.5 C19.65098393 59.44869542 10.16265457 58.96787186 0 58 C0 38.86 0 19.72 0 0 Z " fill="#1B1431" transform="translate(128,180)"/>
<path d="M0 0 C0.33 0 0.66 0 1 0 C2.01979352 23.03756953 2.08864712 46.06977967 2.0625 69.125 C2.06121597 70.26516697 2.06121597 70.26516697 2.05990601 71.42836761 C2.04839473 80.95226895 2.02814766 90.47613289 2 100 C2.83972855 99.99345398 3.67945709 99.98690796 4.54463196 99.98016357 C7.7274077 99.95857441 10.91014554 99.94305037 14.0929718 99.93133545 C15.45791367 99.92513567 16.82284756 99.91667323 18.1877594 99.90570068 C31.32074312 99.80294105 44.04614439 100.89913468 57 103 C57.93602051 103.14985352 58.87204102 103.29970703 59.83642578 103.45410156 C62.48164088 103.89473686 65.11577385 104.3731449 67.75 104.875 C68.51852295 105.01196289 69.2870459 105.14892578 70.07885742 105.29003906 C75.14238909 106.35218207 77.6629295 108.10574169 81 112 C85.52524397 115.89381458 88.81354787 116.50014767 94.5859375 116.2734375 C97.58208097 115.9340685 100.22424213 115.16874015 103 114 C100.60633973 116.77160662 98.55491039 118.07263207 95 119 C88.9218031 119.11235114 84.77961575 117.9105947 80 114 C79.33097656 113.17371094 78.66195312 112.34742188 77.97265625 111.49609375 C73.81996193 108.00914017 69.95347697 107.60003756 64.6875 106.8125 C63.79482422 106.66103516 62.90214844 106.50957031 61.98242188 106.35351562 C58.99320619 105.86055725 55.99964239 105.42489073 53 105 C51.80125244 104.82267334 50.60250488 104.64534668 49.36743164 104.46264648 C38.92461398 103.01994449 28.59488158 102.60967113 18.0625 102.4375 C15.61232677 102.39345032 13.16227727 102.34695663 10.71226501 102.29469299 C9.20549698 102.26288399 7.69861624 102.23594854 6.19166565 102.21446228 C1.11204015 102.11204015 1.11204015 102.11204015 0 101 C-0.09534958 97.86440114 -0.12550879 94.75086387 -0.11352539 91.61499023 C-0.11367142 90.62973358 -0.11381744 89.64447693 -0.1139679 88.62936401 C-0.11326832 85.35575193 -0.10547385 82.08219596 -0.09765625 78.80859375 C-0.09579223 76.54557832 -0.09436825 74.28256249 -0.09336853 72.01954651 C-0.0895421 66.05021052 -0.07971075 60.08089868 -0.06866455 54.11157227 C-0.05845312 48.02555671 -0.05387149 41.93953727 -0.04882812 35.85351562 C-0.03808859 23.90233311 -0.02101068 11.95116856 0 0 Z " fill="#664092" transform="translate(116,149)"/>
<path d="M0 0 C0.33 0 0.66 0 1 0 C1 33.66 1 67.32 1 102 C0.67 102 0.34 102 0 102 C-0.33 92.43 -0.66 82.86 -1 73 C-1.33 73 -1.66 73 -2 73 C-2.33 83.89 -2.66 94.78 -3 106 C-3.33 106 -3.66 106 -4 106 C-4.04633238 93.83029195 -4.08187385 81.66060488 -4.10362434 69.49082661 C-4.11406327 63.83996275 -4.12822457 58.18915922 -4.15087891 52.53833008 C-4.17260324 47.08537897 -4.18456781 41.6324859 -4.18975449 36.17949486 C-4.19345096 34.09867629 -4.20066919 32.01786091 -4.21146011 29.93706703 C-4.22596945 27.02348581 -4.22797816 24.11014472 -4.22705078 21.1965332 C-4.23424133 20.33554016 -4.24143188 19.47454712 -4.24884033 18.58746338 C-4.23395621 14.26836957 -4.01508702 10.93532404 -2 7 C-1.34 7 -0.68 7 0 7 C0 4.69 0 2.38 0 0 Z " fill="#282038" transform="translate(137,126)"/>
<path d="M0 0 C0.33 0 0.66 0 1 0 C1.33 1.65 1.66 3.3 2 5 C2.33 5 2.66 5 3 5 C3 22.16 3 39.32 3 57 C8.28 57.66 13.56 58.32 19 59 C29.2948884 61.36276127 38.45941334 64.58986749 48 69 C47.505 70.485 47.505 70.485 47 72 C45.60396057 71.58402437 44.20818801 71.16715317 42.8125 70.75 C41.41837891 70.33814453 41.41837891 70.33814453 39.99609375 69.91796875 C38.08115051 69.33125211 36.17573624 68.71180418 34.28515625 68.05078125 C22.81978446 64.15717177 12.48773714 63.08128952 0 61 C0 40.87 0 20.74 0 0 Z " fill="#0E1410" transform="translate(134,171)"/>
<path d="M0 0 C0.33 0 0.66 0 1 0 C1.06058594 0.71027344 1.12117188 1.42054688 1.18359375 2.15234375 C1.26738281 3.07144531 1.35117187 3.99054688 1.4375 4.9375 C1.51871094 5.85402344 1.59992188 6.77054688 1.68359375 7.71484375 C1.76044976 9.96159732 1.76044976 9.96159732 3 11 C3.10582603 13.758638 3.14677854 16.49237235 3.14526367 19.25170898 C3.15030159 20.54921082 3.15030159 20.54921082 3.15544128 21.8729248 C3.16498113 24.74732885 3.1668959 27.62167484 3.16796875 30.49609375 C3.17117919 32.48527552 3.1745431 34.47445705 3.17805481 36.46363831 C3.18405366 40.63925728 3.18589393 44.81485553 3.18530273 48.99047852 C3.18520106 54.35206433 3.19885515 59.71351786 3.21607494 65.07507229 C3.22717064 69.18504959 3.22922269 73.29499467 3.22869301 77.40498543 C3.22987673 79.3822176 3.2343203 81.3594505 3.24202538 83.33666801 C3.2517765 86.09750621 3.24896666 88.85805404 3.24291992 91.61889648 C3.24853943 92.44235062 3.25415894 93.26580475 3.25994873 94.11421204 C3.22831537 99.77168463 3.22831537 99.77168463 1 102 C-1.625 102.125 -1.625 102.125 -4 102 C-2.02 101.505 -2.02 101.505 0 101 C0 67.67 0 34.34 0 0 Z " fill="#1D1A24" transform="translate(289,138)"/>
<path d="M0 0 C0.99 0.33 1.98 0.66 3 1 C3 21.46 3 41.92 3 63 C1.68 63 0.36 63 -1 63 C-1.02312737 54.93347826 -1.04091709 46.86697028 -1.05181217 38.80042362 C-1.05704014 35.05516963 -1.06413622 31.30993824 -1.07543945 27.56469727 C-1.08627141 23.95318313 -1.09227749 20.34169079 -1.09487724 16.73016167 C-1.09673094 15.34939671 -1.10035049 13.968633 -1.10573006 12.58787727 C-1.11294447 10.66024048 -1.11340809 8.73258193 -1.11352539 6.80493164 C-1.115746 5.70572891 -1.11796661 4.60652618 -1.12025452 3.47401428 C-1 1 -1 1 0 0 Z " fill="#C36EE2" transform="translate(241,157)"/>
<path d="M0 0 C0.33 0 0.66 0 1 0 C1.84120996 3.65698535 2.12640712 7.03493496 2.12939453 10.78417969 C2.13254669 11.9217572 2.13569885 13.05933472 2.13894653 14.23138428 C2.13591019 16.05817719 2.13591019 16.05817719 2.1328125 17.921875 C2.13376923 19.17760315 2.13472595 20.4333313 2.13571167 21.72711182 C2.13639142 24.37654083 2.13505481 27.02587722 2.13037109 29.67529297 C2.12465082 33.07732177 2.12797158 36.47927208 2.13394356 39.88129807 C2.13841353 43.12399326 2.13529063 46.36667879 2.1328125 49.609375 C2.13483673 50.83533386 2.13686096 52.06129272 2.13894653 53.32440186 C2.13421829 55.01185516 2.13421829 55.01185516 2.12939453 56.73339844 C2.12859894 57.72869568 2.12780334 58.72399292 2.12698364 59.74945068 C2 62 2 62 1 63 C-1.28653121 63.1353191 -3.57704459 63.20388372 -5.8671875 63.24609375 C-7.31551846 63.27741047 -8.7638418 63.30908135 -10.2121582 63.34106445 C-10.97372223 63.35642242 -11.73528625 63.3717804 -12.51992798 63.38760376 C-25.74909011 63.66788625 -38.89848566 64.00677816 -52 66 C-52.89589844 66.13277344 -53.79179687 66.26554687 -54.71484375 66.40234375 C-57.58652411 66.8426421 -60.44937352 67.31981033 -63.3125 67.8125 C-64.19139893 67.95341064 -65.07029785 68.09432129 -65.97583008 68.23950195 C-71.68802656 69.30245563 -74.85325585 70.90737323 -79 75 C-77.92598892 72.08482708 -77.22189824 70.22189824 -75 68 C-73.17504883 67.4375 -73.17504883 67.4375 -70.95703125 67 C-69.72859497 66.75407104 -69.72859497 66.75407104 -68.4753418 66.50317383 C-67.596604 66.33712646 -66.71786621 66.1710791 -65.8125 66 C-64.90991455 65.82557373 -64.0073291 65.65114746 -63.07739258 65.47143555 C-41.92439305 61.46485926 -21.6855011 61 0 61 C0 40.87 0 20.74 0 0 Z " fill="#5F398C" transform="translate(298,188)"/>
<path d="M0 0 C1.24692627 0.00733154 2.49385254 0.01466309 3.77856445 0.0222168 C5.19335083 0.0363562 5.19335083 0.0363562 6.63671875 0.05078125 C6.65983954 13.33265534 6.67763249 26.61452468 6.68853092 39.89641476 C6.69376033 46.06303045 6.70085902 52.22963243 6.7121582 58.39624023 C6.72298504 64.34194131 6.72899515 70.28762914 6.73159599 76.23333931 C6.73345061 78.50725068 6.73707192 80.78116129 6.74244881 83.05506706 C6.74965653 86.22805245 6.75070981 89.40098242 6.75024414 92.57397461 C6.75383942 93.52415466 6.75743469 94.47433472 6.76113892 95.45330811 C6.75077091 101.93672909 6.75077091 101.93672909 5.63671875 103.05078125 C3.66198941 103.34688414 1.68626621 103.63742304 -0.29321289 103.89990234 C-14.10948862 105.76431264 -27.41675513 109.34155548 -39.61328125 116.265625 C-40.19078125 116.52472656 -40.76828125 116.78382813 -41.36328125 117.05078125 C-42.02328125 116.72078125 -42.68328125 116.39078125 -43.36328125 116.05078125 C-28.01450676 107.82530769 -12.07695822 101.05078125 5.63671875 101.05078125 C5.63671875 68.05078125 5.63671875 35.05078125 5.63671875 1.05078125 C-9.4330426 3.16802797 -9.4330426 3.16802797 -24.36328125 6.05078125 C-25.35328125 5.72078125 -26.34328125 5.39078125 -27.36328125 5.05078125 C-18.28728362 1.68930065 -9.70864328 -0.07428626 0 0 Z " fill="#9E64CB" transform="translate(271.36328125,125.94921875)"/>
<path d="M0 0 C5.26993722 -0.45402536 8.84008491 1.04792691 13.375 3.5 C14.01566406 3.83386719 14.65632812 4.16773438 15.31640625 4.51171875 C16.88333671 5.33026451 18.44250241 6.16364513 20 7 C19.34 6.01 18.68 5.02 18 4 C21.43595166 5.52708963 24.11912454 7.59927045 27 10 C27.33 8.02 27.66 6.04 28 4 C28.33 4 28.66 4 29 4 C29.33 6.31 29.66 8.62 30 11 C30.99 10.01 31.98 9.02 33 8 C33.66 8.33 34.32 8.66 35 9 C34.34 9.99 33.68 10.98 33 12 C33.58007812 11.52949219 34.16015625 11.05898438 34.7578125 10.57421875 C43.58181351 3.54122784 43.58181351 3.54122784 48 2 C50.375 2.8125 50.375 2.8125 52 4 C52 4.99 52 5.98 52 7 C48.65623844 8.38091376 45.29872225 9.72471121 41.9375 11.0625 C40.99455078 11.45244141 40.05160156 11.84238281 39.08007812 12.24414062 C30.09549426 15.78162487 24.27809439 14.37429889 15.5625 10.9375 C14.83095703 10.65583984 14.09941406 10.37417969 13.34570312 10.08398438 C11.56126454 9.39586753 9.78026095 8.69885394 8 8 C8 7.34 8 6.68 8 6 C7.34 5.67 6.68 5.34 6 5 C5.01 4.34 4.02 3.68 3 3 C2.01 2.67 1.02 2.34 0 2 C0 1.34 0 0.68 0 0 Z " fill="#7240AC" transform="translate(179,245)"/>
<path d="M0 0 C0.33 0 0.66 0 1 0 C1 33.33 1 66.66 1 101 C3.64 101 6.28 101 9 101 C8.01 101.495 8.01 101.495 7 102 C7 102.66 7 103.32 7 104 C3.7 104 0.4 104 -3 104 C-2.67 73.31 -2.34 42.62 -2 11 C-1.67 11 -1.34 11 -1 11 C-0.67 7.37 -0.34 3.74 0 0 Z " fill="#281F35" transform="translate(126,138)"/>
<path d="M0 0 C0.99 0 1.98 0 3 0 C3 22.77 3 45.54 3 69 C2.01 68.67 1.02 68.34 0 68 C0 45.56 0 23.12 0 0 Z " fill="#D776F4" transform="translate(199,155)"/>
<path d="M0 0 C0.33 0 0.66 0 1 0 C1 9.9 1 19.8 1 30 C-3.5375 30.103125 -8.075 30.20625 -12.75 30.3125 C-23.72567251 30.6203797 -34.37356168 31.45428094 -45.19140625 33.37890625 C-48.23869243 33.8758483 -50.93064863 34.13979224 -54 34 C-49.99964782 31.33309855 -46.0190999 30.59009287 -41.375 29.5 C-40.4380127 29.27932861 -39.50102539 29.05865723 -38.53564453 28.83129883 C-27.09325831 26.22634656 -15.67052692 24.61984621 -3.90625 25.02734375 C-1.98899881 25.2212962 -1.98899881 25.2212962 -1 24 C-0.84235595 22.22130274 -0.74899323 20.43681524 -0.68359375 18.65234375 C-0.62075195 17.03295898 -0.62075195 17.03295898 -0.55664062 15.38085938 C-0.51732422 14.24455078 -0.47800781 13.10824219 -0.4375 11.9375 C-0.39431641 10.79732422 -0.35113281 9.65714844 -0.30664062 8.48242188 C-0.20017161 5.65507805 -0.09815793 2.82764262 0 0 Z " fill="#0B150D" transform="translate(292,214)"/>
<path d="M0 0 C-3.8831579 3.05105263 -7.18332395 5.08817851 -12.1328125 5.67578125 C-12.93106445 5.77914795 -13.72931641 5.88251465 -14.55175781 5.98901367 C-15.40092773 6.09576416 -16.25009766 6.20251465 -17.125 6.3125 C-27.04433194 7.66156568 -36.43938231 10.07870015 -46 13 C-45.67 13.66 -45.34 14.32 -45 15 C-45.969375 15.12375 -46.93875 15.2475 -47.9375 15.375 C-48.948125 15.58125 -49.95875 15.7875 -51 16 C-51.33 16.66 -51.66 17.32 -52 18 C-52.99 17.01 -53.98 16.02 -55 15 C-54.5 13.125 -54.5 13.125 -53 11 C-51.09360215 10.49148773 -49.18398416 9.99211644 -47.26025391 9.55371094 C-44.32075072 8.83359933 -41.5117811 7.84472208 -38.65869141 6.84228516 C-25.91351161 2.36788372 -13.63844774 -0.68573201 0 0 Z " fill="#1D1533" transform="translate(283,234)"/>
<path d="M0 0 C0.99 0 1.98 0 3 0 C3 21.12 3 42.24 3 64 C2.01 63.67 1.02 63.34 0 63 C0 42.21 0 21.42 0 0 Z " fill="#D578F3" transform="translate(172,157)"/>
<path d="M0 0 C1.32 0 2.64 0 4 0 C4 14.19 4 28.38 4 43 C2.68 43 1.36 43 0 43 C0 28.81 0 14.62 0 0 Z " fill="#66359B" transform="translate(284,139)"/>
<path d="M0 0 C0.99 0 1.98 0 3 0 C3 18.81 3 37.62 3 57 C2.01 57 1.02 57 0 57 C0 38.19 0 19.38 0 0 Z " fill="#CD72F2" transform="translate(213,175)"/>
<path d="M0 0 C0.99 0 1.98 0 3 0 C3.06058594 1.04800781 3.12117187 2.09601563 3.18359375 3.17578125 C3.26801738 4.55470048 3.35266447 5.93360605 3.4375 7.3125 C3.47681641 8.00279297 3.51613281 8.69308594 3.55664062 9.40429688 C3.74927415 12.47161535 4.02322717 15.06968152 5 18 C4.67 18.66 4.34 19.32 4 20 C3.95875 20.969375 3.9175 21.93875 3.875 22.9375 C3.58625 23.948125 3.2975 24.95875 3 26 C-2.6 29 -2.6 29 -5 29 C-5.33 31.64 -5.66 34.28 -6 37 C-6.33 37 -6.66 37 -7 37 C-7 25.45 -7 13.9 -7 2 C-6.01 1.67 -5.02 1.34 -4 1 C-4 8.92 -4 16.84 -4 25 C-2.68 25 -1.36 25 0 25 C0 16.75 0 8.5 0 0 Z " fill="#140C36" transform="translate(251,183)"/>
<path d="M0 0 C0.99 0.33 1.98 0.66 3 1 C3 14.53 3 28.06 3 42 C1.68 42 0.36 42 -1 42 C-1.02464638 36.17928378 -1.0428343 30.35859766 -1.05493164 24.5378418 C-1.05997267 22.55606559 -1.06680538 20.57429311 -1.07543945 18.5925293 C-1.08751515 15.75047891 -1.09323045 12.90847753 -1.09765625 10.06640625 C-1.10281754 9.17474258 -1.10797882 8.28307892 -1.11329651 7.36439514 C-1.11349177 5.24259399 -1.0621003 3.1208922 -1 1 C-0.67 0.67 -0.34 0.34 0 0 Z " fill="#CB72EA" transform="translate(248,166)"/>
<path d="M0 0 C1.32 0 2.64 0 4 0 C4 13.53 4 27.06 4 41 C2.68 41 1.36 41 0 41 C0 27.47 0 13.94 0 0 Z " fill="#5E338E" transform="translate(128,139)"/>
<path d="M0 0 C0.66 0.33 1.32 0.66 2 1 C2 18.82 2 36.64 2 55 C1.01 55 0.02 55 -1 55 C-1.02526605 47.32788798 -1.04283123 39.6557866 -1.05493164 31.98364258 C-1.05997377 29.37133381 -1.06680725 26.75902789 -1.07543945 24.14672852 C-1.08751036 20.40119732 -1.09322935 16.65570328 -1.09765625 12.91015625 C-1.10281754 11.73413345 -1.10797882 10.55811066 -1.11329651 9.34645081 C-1.11340981 7.72488319 -1.11340981 7.72488319 -1.11352539 6.07055664 C-1.115746 5.11347305 -1.11796661 4.15638947 -1.12025452 3.17030334 C-1 1 -1 1 0 0 Z " fill="#DF7EF6" transform="translate(221,152)"/>
<path d="M0 0 C1.32 0.33 2.64 0.66 4 1 C4.07403712 6.23271569 4.12854783 11.46512801 4.16479492 16.69824219 C4.17990173 18.47922067 4.20038835 20.26016184 4.22631836 22.04101562 C4.26261943 24.59774978 4.27970688 27.1539931 4.29296875 29.7109375 C4.30845261 30.50994476 4.32393646 31.30895203 4.33988953 32.13217163 C4.34057617 34.37646484 4.34057617 34.37646484 4 38 C3.01 38.66 2.02 39.32 1 40 C0 39 0 39 -0.11352539 35.30639648 C-0.11336624 33.66128708 -0.10766988 32.01617269 -0.09765625 30.37109375 C-0.0962413 29.50686295 -0.09482635 28.64263214 -0.09336853 27.75221252 C-0.08775239 24.98060708 -0.07519719 22.2090812 -0.0625 19.4375 C-0.05748708 17.5631522 -0.05292381 15.68880315 -0.04882812 13.81445312 C-0.03777772 9.20960456 -0.0205023 4.60481579 0 0 Z " fill="#CA73E5" transform="translate(192,169)"/>
<path d="M0 0 C16.36121456 0 16.36121456 0 23.4375 1.625 C24.63318604 1.8890564 24.63318604 1.8890564 25.85302734 2.15844727 C36.91613663 4.74381182 47.30110541 9.05975562 57 15 C56.34 15.33 55.68 15.66 55 16 C52.67273033 15.00345891 50.44490959 13.94948449 48.1875 12.8125 C32.8675369 5.3858127 17.90972118 3.11371515 1 1 C1 17.17 1 33.34 1 50 C0.67 50 0.34 50 0 50 C0 33.5 0 17 0 0 Z " fill="#B875E6" transform="translate(138,126)"/>
<path d="M0 0 C0.33 0 0.66 0 1 0 C1 10.23 1 20.46 1 31 C0.34 31 -0.32 31 -1 31 C-1.33 30.01 -1.66 29.02 -2 28 C-2.99 28.33 -3.98 28.66 -5 29 C-5.33 32.3 -5.66 35.6 -6 39 C-6.33 39 -6.66 39 -7 39 C-8.39315424 28.37719894 -8.09675083 17.68873373 -8 7 C-7.01 7.495 -7.01 7.495 -6 8 C-5.68758629 10.54941373 -5.48696579 13.00361513 -5.375 15.5625 C-5.33632812 16.27341797 -5.29765625 16.98433594 -5.2578125 17.71679688 C-5.16328217 19.47742425 -5.08054183 21.23867728 -5 23 C-4.01 23.33 -3.02 23.66 -2 24 C-1.96241577 23.01604248 -1.96241577 23.01604248 -1.92407227 22.01220703 C-1.8082674 19.04959817 -1.68547114 16.08731969 -1.5625 13.125 C-1.52318359 12.09246094 -1.48386719 11.05992187 -1.44335938 9.99609375 C-1.40146484 9.00996094 -1.35957031 8.02382812 -1.31640625 7.0078125 C-1.27974854 6.09660645 -1.24309082 5.18540039 -1.20532227 4.24658203 C-1 2 -1 2 0 0 Z " fill="#352053" transform="translate(211,183)"/>
<path d="M0 0 C1.32 0 2.64 0 4 0 C4 10.56 4 21.12 4 32 C2.68 32 1.36 32 0 32 C0 21.44 0 10.88 0 0 Z " fill="#623993" transform="translate(118,150)"/>
<path d="M0 0 C15.27332793 -0.71718235 29.5102854 2.47626977 44 7 C39.97358163 8.55022309 36.27113728 7.46744188 32.1875 6.6875 C22.94015706 5.05484367 13.67256944 4.37284943 4.3125 3.8125 C3.6043515 3.77007172 2.896203 3.72764343 2.16659546 3.68392944 C-1.88830499 3.4439399 -5.94379805 3.21680304 -10 3 C-10 2.67 -10 2.34 -10 2 C-6.7 2 -3.4 2 0 2 C0 1.34 0 0.68 0 0 Z " fill="#071208" transform="translate(133,240)"/>
<path d="M0 0 C0.99 0 1.98 0 3 0 C3.13947228 11.37473908 2.73570866 22.64906646 2 34 C-1.05881339 28.09375462 -1.8531724 22.15921545 -0.5 15.5625 C-0.335 15.046875 -0.17 14.53125 0 14 C-1.32 14 -2.64 14 -4 14 C-6.41685712 9.77050005 -7.34833144 6.87664009 -7 2 C-6.01 2 -5.02 2 -4 2 C-3.67 4.64 -3.34 7.28 -3 10 C-2.01 10.33 -1.02 10.66 0 11 C0 7.37 0 3.74 0 0 Z " fill="#1C1342" transform="translate(237,186)"/>
<path d="M0 0 C1.32 0 2.64 0 4 0 C4 10.23 4 20.46 4 31 C2.68 31 1.36 31 0 31 C0 20.77 0 10.54 0 0 Z " fill="#5F348F" transform="translate(294,150)"/>
<path d="M0 0 C0.99 0 1.98 0 3 0 C3.46244555 4.74648972 3.73673719 9.27396736 3 14 C1.25390625 15.4453125 1.25390625 15.4453125 -0.9375 16.3125 C-3.2519092 17.13968418 -3.2519092 17.13968418 -5 19 C-6.41787894 24.47994972 -6.09908668 30.38302399 -6 36 C-6.33 36 -6.66 36 -7 36 C-7 24.78 -7 13.56 -7 2 C-6.01 2 -5.02 2 -4 2 C-3.67 5.3 -3.34 8.6 -3 12 C-2.01 12.33 -1.02 12.66 0 13 C0 8.71 0 4.42 0 0 Z " fill="#2E1851" transform="translate(182,183)"/>
<path d="M0 0 C0.99 0 1.98 0 3 0 C3 13.53 3 27.06 3 41 C2.01 41 1.02 41 0 41 C0 27.47 0 13.94 0 0 Z " fill="#D877F5" transform="translate(165,167)"/>
<path d="M0 0 C0.99 0.66 1.98 1.32 3 2 C3.34057617 4.15478516 3.34057617 4.15478516 3.29296875 6.7890625 C3.28330078 7.73007813 3.27363281 8.67109375 3.26367188 9.640625 C3.23853516 10.62546875 3.21339844 11.6103125 3.1875 12.625 C3.17396484 13.61757812 3.16042969 14.61015625 3.14648438 15.6328125 C3.11105743 18.08908072 3.06166196 20.54427285 3 23 C3.66 23.33 4.32 23.66 5 24 C4.01 24.33 3.02 24.66 2 25 C1.67 26.65 1.34 28.3 1 30 C0.01 30 -0.98 30 -2 30 C-1.88201748 25.88806264 -1.75778941 21.77636712 -1.62768555 17.66479492 C-1.58428566 16.26510801 -1.54261436 14.86536641 -1.50268555 13.46557617 C-1.44510555 11.45738505 -1.38086 9.44938851 -1.31640625 7.44140625 C-1.27974854 6.23170166 -1.24309082 5.02199707 -1.20532227 3.77563477 C-1 1 -1 1 0 0 Z " fill="#4E2E74" transform="translate(225,160)"/>
<path d="M0 0 C0.99 0 1.98 0 3 0 C3 10.56 3 21.12 3 32 C-0.37027852 28.62972148 -0.56878688 27.43473296 -1.25 22.875 C-1.42015625 21.79992187 -1.5903125 20.72484375 -1.765625 19.6171875 C-1.84296875 18.75351563 -1.9203125 17.88984375 -2 17 C-1.67 16.67 -1.34 16.34 -1 16 C-0.76321284 13.30764224 -0.57801975 10.63501844 -0.4375 7.9375 C-0.39431641 7.17888672 -0.35113281 6.42027344 -0.30664062 5.63867188 C-0.20026367 3.75934562 -0.09960066 1.87969756 0 0 Z " fill="#1A123D" transform="translate(196,191)"/>
<path d="M0 0 C0.33 0 0.66 0 1 0 C2.01758537 5.01581451 2.11810913 9.78750233 2.0625 14.875 C2.041875 17.55625 2.02125 20.2375 2 23 C11.9 23 21.8 23 32 23 C32 23.33 32 23.66 32 24 C27.94304903 24.76027722 24.10605895 25.12820327 19.98046875 25.1328125 C18.87638672 25.13410156 17.77230469 25.13539063 16.63476562 25.13671875 C15.49716797 25.13285156 14.35957031 25.12898438 13.1875 25.125 C11.45209961 25.13080078 11.45209961 25.13080078 9.68164062 25.13671875 C8.58400391 25.13542969 7.48636719 25.13414062 6.35546875 25.1328125 C5.35153076 25.13168457 4.34759277 25.13055664 3.31323242 25.12939453 C1 25 1 25 0 24 C-0.08726223 22.21928754 -0.10699041 20.4351686 -0.09765625 18.65234375 C-0.09443359 17.57275391 -0.09121094 16.49316406 -0.08789062 15.38085938 C-0.07951172 14.24455078 -0.07113281 13.10824219 -0.0625 11.9375 C-0.05798828 10.79732422 -0.05347656 9.65714844 -0.04882812 8.48242188 C-0.03699747 5.65489649 -0.0205141 2.8274736 0 0 Z " fill="#53327D" transform="translate(116,226)"/>
<path d="M0 0 C2.47682065 4.33443613 2.45726075 8.11082736 2 13 C1.37400383 14.68236471 0.71247732 16.3523962 0 18 C-0.25086724 21.16732421 -0.25086724 21.16732421 0 24 C0.33 24.33 0.66 24.66 1 25 C1.08700342 26.63472882 1.10701063 28.27314055 1.09765625 29.91015625 C1.09282227 31.39418945 1.09282227 31.39418945 1.08789062 32.90820312 C1.07951172 33.94912109 1.07113281 34.99003906 1.0625 36.0625 C1.05798828 37.10728516 1.05347656 38.15207031 1.04882812 39.22851562 C1.03699913 41.8190666 1.02051689 44.40950559 1 47 C0.67 47 0.34 47 0 47 C-0.06058594 45.92878906 -0.12117187 44.85757813 -0.18359375 43.75390625 C-0.26798537 42.35675609 -0.35263406 40.95962143 -0.4375 39.5625 C-0.47681641 38.85544922 -0.51613281 38.14839844 -0.55664062 37.41992188 C-0.47624438 33.91309581 -0.47624438 33.91309581 -2 31 C-2.25458617 26.56848912 -2.18523227 22.12545131 -2.1875 17.6875 C-2.19974609 16.43775391 -2.21199219 15.18800781 -2.22460938 13.90039062 C-2.22654297 12.69962891 -2.22847656 11.49886719 -2.23046875 10.26171875 C-2.23663208 8.60595825 -2.23663208 8.60595825 -2.24291992 6.91674805 C-2.00518501 4.06225656 -1.48095355 2.41714217 0 0 Z " fill="#54357D" transform="translate(205,159)"/>
<path d="M0 0 C0.99 0 1.98 0 3 0 C3.07347656 1.60681641 3.07347656 1.60681641 3.1484375 3.24609375 C3.22345294 4.64325639 3.2990013 6.0403905 3.375 7.4375 C3.42140625 8.49807617 3.42140625 8.49807617 3.46875 9.58007812 C3.57280629 11.39239188 3.77919892 13.19817988 4 15 C4.66 15.33 5.32 15.66 6 16 C5.67 16.99 5.34 17.98 5 19 C4.34 19 3.68 19 3 19 C2.01 24.445 2.01 24.445 1 30 C0.67 30 0.34 30 0 30 C0 20.1 0 10.2 0 0 Z " fill="#281345" transform="translate(216,191)"/>
<path d="M0 0 C1.65 0.33 3.3 0.66 5 1 C5 6.28 5 11.56 5 17 C3.35 17 1.7 17 0 17 C-1.02835363 13.91493912 -1.13368434 11.7305728 -1.125 8.5 C-1.12757813 7.5409375 -1.13015625 6.581875 -1.1328125 5.59375 C-1 3 -1 3 0 0 Z " fill="#291B42" transform="translate(152,179)"/>
<path d="M0 0 C0.33 0 0.66 0 1 0 C1 2.97 1 5.94 1 9 C1.66 9 2.32 9 3 9 C3.16741675 22.69096943 2.6492751 36.32550669 2 50 C1.67 50 1.34 50 1 50 C0.09033808 33.32367126 -0.12538412 16.69923597 0 0 Z " fill="#4A2875" transform="translate(244,158)"/>
<path d="M0 0 C0.99 0.33 1.98 0.66 3 1 C3 7.6 3 14.2 3 21 C1.68 21 0.36 21 -1 21 C-1.02888146 17.68751813 -1.04675799 14.37506833 -1.0625 11.0625 C-1.07087891 10.11697266 -1.07925781 9.17144531 -1.08789062 8.19726562 C-1.09111328 7.29814453 -1.09433594 6.39902344 -1.09765625 5.47265625 C-1.10289307 4.64000244 -1.10812988 3.80734863 -1.11352539 2.94946289 C-1 1 -1 1 0 0 Z " fill="#BA68DE" transform="translate(255,177)"/>
<path d="M0 0 C0.66 0 1.32 0 2 0 C2 9.24 2 18.48 2 28 C1.01 28 0.02 28 -1 28 C-1.02886338 23.52084672 -1.04675187 19.04171709 -1.0625 14.5625 C-1.07087891 13.28310547 -1.07925781 12.00371094 -1.08789062 10.68554688 C-1.09111328 9.47060547 -1.09433594 8.25566406 -1.09765625 7.00390625 C-1.10289307 5.87799072 -1.10812988 4.7520752 -1.11352539 3.59204102 C-1 1 -1 1 0 0 Z " fill="#D77AEE" transform="translate(241,157)"/>
<path d="M0 0 C0.99 0 1.98 0 3 0 C3 8.58 3 17.16 3 26 C1.68 26.33 0.36 26.66 -1 27 C-1.33 26.34 -1.66 25.68 -2 25 C-1.34 25 -0.68 25 0 25 C0 16.75 0 8.5 0 0 Z " fill="#391D5E" transform="translate(168,183)"/>
<path d="M0 0 C2.3125 0.8125 2.3125 0.8125 4 2 C3.67 2.33 3.34 2.66 3 3 C9.27 4.98 15.54 6.96 22 9 C21.01 10.485 21.01 10.485 20 12 C19.37609375 11.70996094 18.7521875 11.41992188 18.109375 11.12109375 C13.08895763 9.31096839 7.84179296 8.52627444 2.59765625 7.58789062 C1.76621094 7.42611328 0.93476563 7.26433594 0.078125 7.09765625 C-0.68081055 6.95851807 -1.43974609 6.81937988 -2.22167969 6.67602539 C-2.80852539 6.45293701 -3.39537109 6.22984863 -4 6 C-4.33 5.01 -4.66 4.02 -5 3 C-2.75 1.375 -2.75 1.375 0 0 Z " fill="#14131D" transform="translate(177,247)"/>
<path d="M0 0 C0.33 0 0.66 0 1 0 C1.33 6.27 1.66 12.54 2 19 C2.66 19.33 3.32 19.66 4 20 C4 24.95 4 29.9 4 35 C2.68 35 1.36 35 0 35 C0 23.45 0 11.9 0 0 Z " fill="#BA6EDA" transform="translate(240,185)"/>
<path d="M0 0 C2 2 2 2 2 5 C1.979375 6.299375 1.95875 7.59875 1.9375 8.9375 C1.92002032 11.32347622 2.00269011 13.00904854 2.6875 15.3125 C2.790625 15.869375 2.89375 16.42625 3 17 C1.75 18.75 1.75 18.75 0 20 C-0.99 20 -1.98 20 -3 20 C-3.08112454 17.41603321 -3.14054748 14.83462432 -3.1875 12.25 C-3.21263672 11.52039063 -3.23777344 10.79078125 -3.26367188 10.0390625 C-3.30981636 6.65513396 -3.25324128 4.42141443 -1.48828125 1.484375 C-0.75158203 0.74960938 -0.75158203 0.74960938 0 0 Z " fill="#512F7A" transform="translate(178,165)"/>
<path d="M0 0 C-0.33 0.66 -0.66 1.32 -1 2 C-9.02078543 0.42910884 -17.01144087 -1.27336618 -25 -3 C-24.67 -3.99 -24.34 -4.98 -24 -6 C-16.61834998 -8.46055001 -6.85040419 -2.92739615 0 0 Z " fill="#23193B" transform="translate(180,244)"/>
<path d="M0 0 C0.33 0 0.66 0 1 0 C1 5.61 1 11.22 1 17 C1.99 17 2.98 17 4 17 C4 21.95 4 26.9 4 32 C2.68 32 1.36 32 0 32 C0 21.44 0 10.88 0 0 Z " fill="#B96BDD" transform="translate(247,176)"/>
<path d="M0 0 C1.32 0 2.64 0 4 0 C4 8.25 4 16.5 4 25 C3.67 25 3.34 25 3 25 C2.87625 23.88625 2.7525 22.7725 2.625 21.625 C2.3534187 17.96896323 2.3534187 17.96896323 0 16 C-0.14507695 13.25514407 -0.18652423 10.61519457 -0.125 7.875 C-0.11146484 6.74384766 -0.11146484 6.74384766 -0.09765625 5.58984375 C-0.0740687 3.72642746 -0.03819719 1.86317407 0 0 Z " fill="#3B1D5C" transform="translate(161,182)"/>
<path d="M0 0 C0 0.33 0 0.66 0 1 C2.475 1.495 2.475 1.495 5 2 C5 2.33 5 2.66 5 3 C4.22922119 3.08564209 3.45844238 3.17128418 2.66430664 3.25952148 C1.0535022 3.43849976 1.0535022 3.43849976 -0.58984375 3.62109375 C-10.7265625 4.74739583 -20.86328125 5.87369792 -31 7 C-26.84829534 4.23219689 -22.56895992 3.50577913 -17.75 2.375 C-16.82058594 2.14554688 -15.89117187 1.91609375 -14.93359375 1.6796875 C-9.82390726 0.46550457 -5.25070604 -0.27558954 0 0 Z " fill="#090F0B" transform="translate(269,241)"/>
<path d="M0 0 C0.99 0 1.98 0 3 0 C3 7.92 3 15.84 3 24 C2.01 23.67 1.02 23.34 0 23 C0 15.41 0 7.82 0 0 Z " fill="#D578F3" transform="translate(206,184)"/>
<path d="M0 0 C2.125 0.375 2.125 0.375 4 1 C3.01 1 2.02 1 1 1 C1 7.6 1 14.2 1 21 C0.01 21 -0.98 21 -2 21 C-2.185625 19.824375 -2.185625 19.824375 -2.375 18.625 C-2.79117993 15.85942178 -2.79117993 15.85942178 -5 14 C-4.690625 13.505 -4.38125 13.01 -4.0625 12.5 C-3.04683875 10.11020883 -2.7551529 8.42652904 -2.5 5.875 C-2 2 -2 2 0 0 Z " fill="#4C3177" transform="translate(191,168)"/>
<path d="M0 0 C0.66 0.33 1.32 0.66 2 1 C1.67 1.99 1.34 2.98 1 4 C-1.28515625 4.94921875 -1.28515625 4.94921875 -4.0625 5.6875 C-5.44115234 6.06455078 -5.44115234 6.06455078 -6.84765625 6.44921875 C-7.55792969 6.63097656 -8.26820313 6.81273437 -9 7 C-8.67 7.66 -8.34 8.32 -8 9 C-8.969375 9.12375 -9.93875 9.2475 -10.9375 9.375 C-11.948125 9.58125 -12.95875 9.7875 -14 10 C-14.33 10.66 -14.66 11.32 -15 12 C-15.99 11.01 -16.98 10.02 -18 9 C-17.5 7.125 -17.5 7.125 -16 5 C-14.09494853 4.44162285 -12.18074688 3.89850758 -10.234375 3.5078125 C-7.91014307 2.97957797 -5.83196203 2.20656126 -3.625 1.3125 C-2.42875 0.879375 -1.2325 0.44625 0 0 Z " fill="#21163A" transform="translate(246,240)"/>
<path d="M0 0 C2 2 2 2 2.22705078 4.61376953 C2.21657715 5.69255371 2.20610352 6.77133789 2.1953125 7.8828125 C2.18886719 9.04941406 2.18242187 10.21601563 2.17578125 11.41796875 C2.15902344 12.64128906 2.14226562 13.86460937 2.125 15.125 C2.11597656 16.35605469 2.10695312 17.58710938 2.09765625 18.85546875 C2.07402548 21.90383815 2.04108054 24.95182382 2 28 C2.66 28 3.32 28 4 28 C4.33 28.99 4.66 29.98 5 31 C3.35 31 1.7 31 0 31 C0 20.77 0 10.54 0 0 Z " fill="#141616" transform="translate(135,200)"/>
<path d="M0 0 C0.99 0 1.98 0 3 0 C3 7.26 3 14.52 3 22 C2.01 22 1.02 22 0 22 C0 14.74 0 7.48 0 0 Z " fill="#CE72F3" transform="translate(158,177)"/>
<path d="M0 0 C0.66 0.66 1.32 1.32 2 2 C3.32 2 4.64 2 6 2 C7.55426378 7.9779376 7.55426378 7.9779376 6.0234375 10.80078125 C4.6875 12.4375 4.6875 12.4375 2 15 C1.34 15 0.68 15 0 15 C0 10.05 0 5.1 0 0 Z " fill="#2B1D3F" transform="translate(259,184)"/>
<path d="M0 0 C-0.33 0.99 -0.66 1.98 -1 3 C4.445 3.495 4.445 3.495 10 4 C10 4.33 10 4.66 10 5 C6.9999376 5.02721831 4.00012744 5.04694378 1 5.0625 C-0.25876953 5.07506836 -0.25876953 5.07506836 -1.54296875 5.08789062 C-6.79319339 5.10824033 -11.80455662 4.76368207 -17 4 C-16.01 3.67 -15.02 3.34 -14 3 C-14 2.34 -14 1.68 -14 1 C-12.41693353 0.83081732 -10.83353281 0.66476064 -9.25 0.5 C-7.92742187 0.36078125 -7.92742187 0.36078125 -6.578125 0.21875 C-4 0 -4 0 0 0 Z " fill="#201D2B" transform="translate(283,239)"/>
<path d="M0 0 C7.16672886 0.45513732 13.65480851 1.80093948 20.5 3.9375 C21.39203125 4.20240234 22.2840625 4.46730469 23.203125 4.74023438 C29.73418757 6.73418757 29.73418757 6.73418757 32 9 C32 9.66 32 10.32 32 11 C28.7 10.34 25.4 9.68 22 9 C22.33 8.34 22.66 7.68 23 7 C15.41 5.02 7.82 3.04 0 1 C0 0.67 0 0.34 0 0 Z " fill="#7843AD" transform="translate(155,241)"/>
<path d="M0 0 C0.99 0 1.98 0 3 0 C3.04898438 0.63808594 3.09796875 1.27617187 3.1484375 1.93359375 C3.22320312 2.75988281 3.29796875 3.58617187 3.375 4.4375 C3.44460937 5.26121094 3.51421875 6.08492187 3.5859375 6.93359375 C3.72257813 7.61550781 3.85921875 8.29742187 4 9 C4.66 9.33 5.32 9.66 6 10 C5.01 11.98 4.02 13.96 3 16 C2.01 15.67 1.02 15.34 0 15 C0 10.05 0 5.1 0 0 Z " fill="#2C1A49" transform="translate(223,190)"/>
<path d="M0 0 C0.33 0 0.66 0 1 0 C1 5.94 1 11.88 1 18 C0.01 18 -0.98 18 -2 18 C-2.33 16.68 -2.66 15.36 -3 14 C-4.32 14 -5.64 14 -7 14 C-7 13.01 -7 12.02 -7 11 C-2.66666667 8 -2.66666667 8 -1 8 C-0.67 5.36 -0.34 2.72 0 0 Z " fill="#4A2F72" transform="translate(239,168)"/>
<path d="M0 0 C0.33 0 0.66 0 1 0 C1 8.25 1 16.5 1 25 C0.01 25 -0.98 25 -2 25 C-2.05816623 21.58340509 -2.09365195 18.16693795 -2.125 14.75 C-2.14175781 13.78191406 -2.15851563 12.81382812 -2.17578125 11.81640625 C-2.18222656 10.88183594 -2.18867188 9.94726562 -2.1953125 8.984375 C-2.20578613 8.12553711 -2.21625977 7.26669922 -2.22705078 6.38183594 C-1.98293323 3.82096404 -1.28990512 2.20488971 0 0 Z " fill="#4F2D84" transform="translate(198,166)"/>
<path d="M0 0 C0.99 0 1.98 0 3 0 C3.02686553 1.97909398 3.04633375 3.95828971 3.0625 5.9375 C3.07410156 7.03964844 3.08570313 8.14179688 3.09765625 9.27734375 C3 12 3 12 2 13 C1.76346477 15.52596259 1.57826308 18.03107207 1.4375 20.5625 C1.39431641 21.27341797 1.35113281 21.98433594 1.30664062 22.71679688 C1.20028223 24.47761912 1.09961154 26.2387832 1 28 C0.67 28 0.34 28 0 28 C0 18.76 0 9.52 0 0 Z " fill="#20153E" transform="translate(294,181)"/>
<path d="M0 0 C0.99 0.33 1.98 0.66 3 1 C3 5.29 3 9.58 3 14 C1.68 13.67 0.36 13.34 -1 13 C-1.02686553 11.02090602 -1.04633375 9.04171029 -1.0625 7.0625 C-1.07410156 5.96035156 -1.08570313 4.85820312 -1.09765625 3.72265625 C-1 1 -1 1 0 0 Z " fill="#C36FE5" transform="translate(227,184)"/>
<path d="M0 0 C0.99 0.33 1.98 0.66 3 1 C3 5.29 3 9.58 3 14 C1.68 13.67 0.36 13.34 -1 13 C-1.02686553 11.02090602 -1.04633375 9.04171029 -1.0625 7.0625 C-1.07410156 5.96035156 -1.08570313 4.85820312 -1.09765625 3.72265625 C-1 1 -1 1 0 0 Z " fill="#BF6ADF" transform="translate(179,182)"/>
<path d="M0 0 C0.33 1.65 0.66 3.3 1 5 C0.01 5 -0.98 5 -2 5 C-2.33 6.98 -2.66 8.96 -3 11 C-3.33 11 -3.66 11 -4 11 C-4.33 12.98 -4.66 14.96 -5 17 C-5.33 17 -5.66 17 -6 17 C-6 11.39 -6 5.78 -6 0 C-3 -1 -3 -1 0 0 Z " fill="#14122F" transform="translate(264,181)"/>
<path d="M0 0 C-0.33 0.66 -0.66 1.32 -1 2 C-3.3182429 2.42579972 -5.65739357 2.7397104 -8 3 C-12.47681125 3.52109063 -16.86778713 4.10645742 -21.25 5.1875 C-25 6 -25 6 -28 5 C-18.82692956 1.60256651 -9.80694162 -0.37007327 0 0 Z " fill="#AC69D5" transform="translate(272,126)"/>
<path d="M0 0 C5.39040653 -0.53904065 9.62871165 0.88063194 14 4 C14.33 4.99 14.66 5.98 15 7 C12.69 7.33 10.38 7.66 8 8 C8 7.34 8 6.68 8 6 C7.34 5.67 6.68 5.34 6 5 C5.01 4.34 4.02 3.68 3 3 C2.01 2.67 1.02 2.34 0 2 C0 1.34 0 0.68 0 0 Z " fill="#3A275A" transform="translate(179,245)"/>
<path d="M0 0 C0.99 0.33 1.98 0.66 3 1 C3 5.95 3 10.9 3 16 C2.01 16 1.02 16 0 16 C0 10.72 0 5.44 0 0 Z " fill="#D273F1" transform="translate(234,181)"/>
<path d="M0 0 C1.485 0.99 1.485 0.99 3 2 C3.1875 5.625 3.1875 5.625 3 9 C3.99 9.33 4.98 9.66 6 10 C5.01 10.495 5.01 10.495 4 11 C3.34444881 13.52733235 3.34444881 13.52733235 3 16 C2.01 16 1.02 16 0 16 C0 10.72 0 5.44 0 0 Z " fill="#4F2D7A" transform="translate(251,167)"/>
<path d="M0 0 C0.99 0 1.98 0 3 0 C3 3.63 3 7.26 3 11 C1.68 11 0.36 11 -1 11 C-1.02688151 9.35425434 -1.04634123 7.70838587 -1.0625 6.0625 C-1.07410156 5.14597656 -1.08570313 4.22945312 -1.09765625 3.28515625 C-1 1 -1 1 0 0 Z " fill="#C872E5" transform="translate(186,184)"/>
<path d="M0 0 C0.33 0 0.66 0 1 0 C1.22786458 2.05078125 1.45572917 4.1015625 1.68359375 6.15234375 C1.81886614 8.01140229 1.81886614 8.01140229 3 9 C3.08700342 10.63472882 3.10701063 12.27314055 3.09765625 13.91015625 C3.09282227 15.39418945 3.09282227 15.39418945 3.08789062 16.90820312 C3.07951172 17.94912109 3.07113281 18.99003906 3.0625 20.0625 C3.05798828 21.10728516 3.05347656 22.15207031 3.04882812 23.22851562 C3.03699913 25.8190666 3.02051689 28.40950559 3 31 C2.67 31 2.34 31 2 31 C1.93941406 29.92878906 1.87882813 28.85757813 1.81640625 27.75390625 C1.73201463 26.35675609 1.64736594 24.95962143 1.5625 23.5625 C1.50352539 22.50192383 1.50352539 22.50192383 1.44335938 21.41992188 C1.52375562 17.91309581 1.52375562 17.91309581 0 15 C-0.07313567 12.46950598 -0.09247527 9.96695163 -0.0625 7.4375 C-0.05798828 6.72658203 -0.05347656 6.01566406 -0.04882812 5.28320312 C-0.03700864 3.52209987 -0.01907263 1.76103964 0 0 Z " fill="#4A2776" transform="translate(203,175)"/>
<path d="M0 0 C0.99 0 1.98 0 3 0 C3.92188461 2.76565382 4.11785222 4.38283702 4.09765625 7.23046875 C4.09443359 8.03291016 4.09121094 8.83535156 4.08789062 9.66210938 C4.07532227 10.91217773 4.07532227 10.91217773 4.0625 12.1875 C4.05798828 13.03248047 4.05347656 13.87746094 4.04882812 14.74804688 C4.03705403 16.83206155 4.0191189 18.91603977 4 21 C0.94118661 15.09375462 0.1468276 9.15921545 1.5 2.5625 C1.665 2.046875 1.83 1.53125 2 1 C1.34 0.67 0.68 0.34 0 0 Z " fill="#231B31" transform="translate(235,199)"/>
<path d="M0 0 C0.99 0 1.98 0 3 0 C3.22084624 6.09781001 3.01167675 11.21642935 1 17 C0.34 16.67 -0.32 16.34 -1 16 C-0.67 10.72 -0.34 5.44 0 0 Z " fill="#33195D" transform="translate(196,191)"/>
<path d="M0 0 C0.99 0.33 1.98 0.66 3 1 C3.08131463 2.43655854 3.13933559 3.8744483 3.1875 5.3125 C3.22230469 6.11300781 3.25710937 6.91351563 3.29296875 7.73828125 C2.93801608 10.47851584 2.10633718 11.29171079 0 13 C-0.94738023 10.15785932 -1.13460559 8.32391609 -1.125 5.375 C-1.12757813 4.57835937 -1.13015625 3.78171875 -1.1328125 2.9609375 C-1 1 -1 1 0 0 Z " fill="#D882ED" transform="translate(248,166)"/>
<path d="M0 0 C1.485 0.99 1.485 0.99 3 2 C2.91266424 3.60517097 2.80447776 5.20921662 2.6875 6.8125 C2.62949219 7.70582031 2.57148438 8.59914062 2.51171875 9.51953125 C1.93686419 12.30604 1.1793144 13.24135754 -1 15 C-1.02685412 12.68756208 -1.04632841 10.3750373 -1.0625 8.0625 C-1.07410156 6.77472656 -1.08570313 5.48695313 -1.09765625 4.16015625 C-1 1 -1 1 0 0 Z " fill="#563380" transform="translate(225,160)"/>
<path d="M0 0 C0.66 0.33 1.32 0.66 2 1 C1.21625 1.721875 0.4325 2.44375 -0.375 3.1875 C-2.84412438 5.83299041 -3.93260278 7.60373611 -5 11 C-5.66 11 -6.32 11 -7 11 C-7 8.36 -7 5.72 -7 3 C-4.69631264 1.93347808 -2.35981813 0.93578995 0 0 Z M-9 11 C-8.01 11.495 -8.01 11.495 -7 12 C-7.99 12.495 -7.99 12.495 -9 13 C-9 12.34 -9 11.68 -9 11 Z " fill="#20192D" transform="translate(252,209)"/>
<path d="M0 0 C0.53625 0.391875 1.0725 0.78375 1.625 1.1875 C1.625 2.1775 1.625 3.1675 1.625 4.1875 C-2.49668689 5.81700412 -5.08200357 6.45014601 -9.375 5.1875 C-8.375 2.1875 -8.375 2.1875 -5.5625 0.375 C-2.375 -0.8125 -2.375 -0.8125 0 0 Z " fill="#603790" transform="translate(229.375,247.8125)"/>
<path d="M0 0 C0.99 0.33 1.98 0.66 3 1 C3 5.95 3 10.9 3 16 C2.01 15.67 1.02 15.34 0 15 C0 10.05 0 5.1 0 0 Z " fill="#B063DE" transform="translate(241,204)"/>
<path d="M0 0 C0.99 0 1.98 0 3 0 C2.67 4.95 2.34 9.9 2 15 C1.34 15 0.68 15 0 15 C-1 12 -1 12 0 9 C-0.66 8.67 -1.32 8.34 -2 8 C-1.34 5.36 -0.68 2.72 0 0 Z " fill="#261B44" transform="translate(189,189)"/>
<path d="M0 0 C0.99 0 1.98 0 3 0 C3 3.63 3 7.26 3 11 C2.34 11 1.68 11 1 11 C1 13.31 1 15.62 1 18 C0.67 18 0.34 18 0 18 C0 12.06 0 6.12 0 0 Z " fill="#3D1E6A" transform="translate(216,191)"/>
<path d="M0 0 C1.45937649 0.30759166 2.91813397 0.61822936 4.375 0.9375 C4.045 1.5975 3.715 2.2575 3.375 2.9375 C1.7495692 2.79654936 0.12465949 2.64957913 -1.5 2.5 C-2.40492188 2.41878906 -3.30984375 2.33757812 -4.2421875 2.25390625 C-6.625 1.9375 -6.625 1.9375 -8.625 0.9375 C-10.32863822 0.71127919 -12.03828701 0.52861527 -13.75 0.375 C-14.66007813 0.29121094 -15.57015625 0.20742187 -16.5078125 0.12109375 C-17.20648438 0.06050781 -17.90515625 -0.00007812 -18.625 -0.0625 C-13.14920937 -3.71302709 -6.18629872 -1.22317997 0 0 Z " fill="#A663D2" transform="translate(163.625,128.0625)"/>
<path d="M0 0 C0.66 0 1.32 0 2 0 C2 5.94 2 11.88 2 18 C1.67 18 1.34 18 1 18 C-0.29283945 12.26302493 -1.37619454 6.89371452 -1 1 C-0.67 0.67 -0.34 0.34 0 0 Z " fill="#E883F9" transform="translate(241,157)"/>
<path d="M0 0 C0.33 0.66 0.66 1.32 1 2 C-0.93232821 2.86580287 -2.87107194 3.71729941 -4.8125 4.5625 C-5.89144531 5.03816406 -6.97039062 5.51382812 -8.08203125 6.00390625 C-11 7 -11 7 -14 6 C-5.92255125 -0.88838269 -5.92255125 -0.88838269 0 0 Z " fill="#7440B1" transform="translate(224,252)"/>
<path d="M0 0 C3.96 0 7.92 0 12 0 C12 0.33 12 0.66 12 1 C10.35 1 8.7 1 7 1 C7 1.66 7 2.32 7 3 C1.39 3 -4.22 3 -10 3 C-10 2.67 -10 2.34 -10 2 C-6.7 2 -3.4 2 0 2 C0 1.34 0 0.68 0 0 Z " fill="#081104" transform="translate(133,240)"/>
<path d="M0 0 C0.66 0 1.32 0 2 0 C2.24809955 2.6244748 2.4741699 5.24767145 2.6875 7.875 C2.79674805 8.99455078 2.79674805 8.99455078 2.90820312 10.13671875 C3.07421875 12.3046875 3.07421875 12.3046875 3 16 C2.01 16.66 1.02 17.32 0 18 C0 12.06 0 6.12 0 0 Z " fill="#251547" transform="translate(252,183)"/>
<path d="M0 0 C0.99 0 1.98 0 3 0 C3.33 2.64 3.66 5.28 4 8 C4.99 8.33 5.98 8.66 7 9 C7 9.66 7 10.32 7 11 C5.68 11.33 4.36 11.66 3 12 C0.58314288 7.77050005 -0.34833144 4.87664009 0 0 Z " fill="#2C174F" transform="translate(230,188)"/>
<path d="M0 0 C3.43595166 1.52708963 6.11912454 3.59927045 9 6 C9.33 4.02 9.66 2.04 10 0 C10.33 0 10.66 0 11 0 C11 3.3 11 6.6 11 10 C6.03458857 7.51729429 3.06788041 4.60182062 0 0 Z " fill="#4B2C72" transform="translate(197,249)"/>
<path d="M0 0 C0.33 0.99 0.66 1.98 1 3 C0.030625 3.598125 -0.93875 4.19625 -1.9375 4.8125 C-4.32005008 6.74096407 -4.94234929 7.74184084 -5.62109375 10.78125 C-5.85130638 13.52963458 -5.99034134 16.2424518 -6 19 C-6.33 19 -6.66 19 -7 19 C-7.16852247 17.39602723 -7.33474886 15.7918131 -7.5 14.1875 C-7.5928125 13.29417969 -7.685625 12.40085938 -7.78125 11.48046875 C-8 9 -8 9 -8 6 C-2.74285714 2 -2.74285714 2 0 2 C0 1.34 0 0.68 0 0 Z " fill="#20172F" transform="translate(185,195)"/>
<path d="M0 0 C5.08938811 1.59043379 8.87456643 4.7446951 13 8 C12.01 8.495 12.01 8.495 11 9 C8.1796875 7.56640625 8.1796875 7.56640625 4.875 5.5625 C3.77929688 4.90378906 2.68359375 4.24507812 1.5546875 3.56640625 C0.71164063 3.04949219 -0.13140625 2.53257812 -1 2 C-0.67 1.34 -0.34 0.68 0 0 Z " fill="#0D1311" transform="translate(187,244)"/>
<path d="M0 0 C0.06058594 0.69867188 0.12117187 1.39734375 0.18359375 2.1171875 C0.26738281 3.02726563 0.35117188 3.93734375 0.4375 4.875 C0.55931641 6.23238281 0.55931641 6.23238281 0.68359375 7.6171875 C0.86989285 10.01110861 0.86989285 10.01110861 2 12 C0.0625 11.625 0.0625 11.625 -2 11 C-3.60725635 7.78548731 -3.05748185 4.56387464 -3 1 C-1 0 -1 0 0 0 Z " fill="#241937" transform="translate(171,209)"/>
<path d="M0 0 C1.32 0 2.64 0 4 0 C4 0.99 4 1.98 4 3 C5.32 3.33 6.64 3.66 8 4 C7.030625 4.12375 6.06125 4.2475 5.0625 4.375 C3.5465625 4.684375 3.5465625 4.684375 2 5 C1.67 5.66 1.34 6.32 1 7 C0.01 6.01 -0.98 5.02 -2 4 C-1.34 2.68 -0.68 1.36 0 0 Z " fill="#3D275E" transform="translate(230,245)"/>
<path d="M0 0 C0.66 0 1.32 0 2 0 C2 4.95 2 9.9 2 15 C1.01 14.67 0.02 14.34 -1 14 C-0.67 9.38 -0.34 4.76 0 0 Z " fill="#231933" transform="translate(210,214)"/>
<path d="M0 0 C0 6.93 0 13.86 0 21 C-0.33 21 -0.66 21 -1 21 C-1 16.05 -1 11.1 -1 6 C-1.66 6 -2.32 6 -3 6 C-3 4.35 -3 2.7 -3 1 C-1 0 -1 0 0 0 Z " fill="#53287F" transform="translate(220,185)"/>
<path d="M0 0 C0.33 0 0.66 0 1 0 C1.02687279 1.81242052 1.04633715 3.62495233 1.0625 5.4375 C1.07410156 6.44683594 1.08570313 7.45617187 1.09765625 8.49609375 C1 11 1 11 0 12 C-0.36760731 14.32817964 -0.70241581 16.6618385 -1 19 C-1.33 19 -1.66 19 -2 19 C-2.22262303 12.2718373 -1.95021536 6.46008837 0 0 Z " fill="#1B1035" transform="translate(218,213)"/>
<path d="M0 0 C0.99 0.33 1.98 0.66 3 1 C3 2.98 3 4.96 3 7 C1.68 7 0.36 7 -1 7 C-1.04254356 5.00045254 -1.04080783 2.99958364 -1 1 C-0.67 0.67 -0.34 0.34 0 0 Z " fill="#BE6CE3" transform="translate(262,185)"/>
<path d="M0 0 C0.66 0.33 1.32 0.66 2 1 C1.2884375 1.6496875 1.2884375 1.6496875 0.5625 2.3125 C-1.23686957 4.02309613 -1.23686957 4.02309613 -2 7 C-8.75 6.25 -8.75 6.25 -11 4 C-9 4 -7 4 -5 4 C-3.30225062 2.70647667 -1.63260714 1.37482707 0 0 Z " fill="#68399F" transform="translate(212,253)"/>
<path d="M0 0 C2.3125 0.8125 2.3125 0.8125 4 2 C3.67 2.99 3.34 3.98 3 5 C0.69 5.33 -1.62 5.66 -4 6 C-4.33 5.01 -4.66 4.02 -5 3 C-2.75 1.375 -2.75 1.375 0 0 Z " fill="#261B39" transform="translate(177,247)"/>
<path d="M0 0 C0.99 0.33 1.98 0.66 3 1 C2.67 3.64 2.34 6.28 2 9 C0.5 7.8125 0.5 7.8125 -1 6 C-1.25 3.375 -1.25 3.375 -1 1 C-0.67 0.67 -0.34 0.34 0 0 Z " fill="#CD77EB" transform="translate(255,177)"/>
<path d="M0 0 C0.99 0 1.98 0 3 0 C3 3.3 3 6.6 3 10 C0 7 0 7 -0.1875 3.3125 C-0.125625 2.219375 -0.06375 1.12625 0 0 Z " fill="#241043" transform="translate(175,185)"/>
<path d="M0 0 C1.32 0 2.64 0 4 0 C4 1.65 4 3.3 4 5 C3.01 5.33 2.02 5.66 1 6 C0.67 6.66 0.34 7.32 0 8 C0 5.36 0 2.72 0 0 Z " fill="#8243C0" transform="translate(128,139)"/>
<path d="M0 0 C6.625 0.75 6.625 0.75 10 3 C8.375 4.1875 8.375 4.1875 6 5 C2.75 3.625 2.75 3.625 0 2 C0 1.34 0 0.68 0 0 Z " fill="#1E1A2C" transform="translate(189,254)"/>
<path d="M0 0 C0.33 0.99 0.66 1.98 1 3 C-2.05263664 3.98120464 -3.94736336 3.98120464 -7 3 C-7 2.01 -7 1.02 -7 0 C-3.89953913 -1.03348696 -2.94389782 -1.17755913 0 0 Z " fill="#16181B" transform="translate(165,233)"/>
<path d="M0 0 C0 0.66 0 1.32 0 2 C1.65 2 3.3 2 5 2 C5 2.33 5 2.66 5 3 C0.545 3.495 0.545 3.495 -4 4 C-4 3.34 -4 2.68 -4 2 C-4.99 1.67 -5.98 1.34 -7 1 C-4 0 -4 0 0 0 Z " fill="#09110A" transform="translate(262,231)"/>
<path d="M0 0 C3 3.75 3 3.75 3 6 C1.03852126 7.38938077 -0.96166576 8.7260411 -3 10 C-2.814375 9.38125 -2.62875 8.7625 -2.4375 8.125 C-1.76313824 5.95839822 -1.76313824 5.95839822 -3 4 C-2.01 4 -1.02 4 0 4 C0 2.68 0 1.36 0 0 Z " fill="#1A132F" transform="translate(230,194)"/>
<path d="M0 0 C0.99 0 1.98 0 3 0 C3 2.64 3 5.28 3 8 C2.01 8 1.02 8 0 8 C0 5.36 0 2.72 0 0 Z " fill="#D06FF1" transform="translate(151,185)"/>
<path d="M0 0 C2.97 0.33 5.94 0.66 9 1 C9 1.99 9 2.98 9 4 C5.7 3.67 2.4 3.34 -1 3 C-0.67 2.01 -0.34 1.02 0 0 Z " fill="#1B1A21" transform="translate(268,229)"/>
<path d="M0 0 C0.99 0.33 1.98 0.66 3 1 C3 3.31 3 5.62 3 8 C2.01 8 1.02 8 0 8 C0 5.36 0 2.72 0 0 Z " fill="#412772" transform="translate(196,183)"/>
<path d="M0 0 C0 2.64 0 5.28 0 8 C-0.99 8 -1.98 8 -3 8 C-3 5.69 -3 3.38 -3 1 C-1 0 -1 0 0 0 Z " fill="#563084" transform="translate(171,175)"/>
<path d="M0 0 C0 3 0 3 -2 6 C-2.66 6 -3.32 6 -4 6 C-4 5.34 -4 4.68 -4 4 C-4.66 4 -5.32 4 -6 4 C-6 3.34 -6 2.68 -6 2 C-4.02 1.34 -2.04 0.68 0 0 Z " fill="#1E1A2A" transform="translate(223,254)"/>
<path d="M0 0 C0.598125 0.268125 1.19625 0.53625 1.8125 0.8125 C2.1425 1.8025 2.4725 2.7925 2.8125 3.8125 C0.5025 4.1425 -1.8075 4.4725 -4.1875 4.8125 C-4.1875 4.1525 -4.1875 3.4925 -4.1875 2.8125 C-4.8475 2.4825 -5.5075 2.1525 -6.1875 1.8125 C-3.93528616 0.44508445 -2.66192242 -0.22816478 0 0 Z " fill="#54347B" transform="translate(191.1875,248.1875)"/>
<path d="M0 0 C0 0.66 0 1.32 0 2 C-4.51718381 3.36884358 -7.58774263 2.47075246 -12 1 C-12 0.67 -12 0.34 -12 0 C-7.74433453 -1.16063604 -4.3164922 -0.76173392 0 0 Z " fill="#121515" transform="translate(159,242)"/>
<path d="M0 0 C2 3 2 3 2 5 C2.66 5 3.32 5 4 5 C4.33 5.99 4.66 6.98 5 8 C3.35 8 1.7 8 0 8 C0 5.36 0 2.72 0 0 Z " fill="#191A1D" transform="translate(135,223)"/>
<path d="M0 0 C0 0.66 0 1.32 0 2 C-3.3 1.34 -6.6 0.68 -10 0 C-10 -0.33 -10 -0.66 -10 -1 C-3.375 -2.25 -3.375 -2.25 0 0 Z " fill="#6B3B9A" transform="translate(187,250)"/>
<path d="M0 0 C0.99 0 1.98 0 3 0 C2.67 3.63 2.34 7.26 2 11 C1.67 11 1.34 11 1 11 C0.67 7.37 0.34 3.74 0 0 Z " fill="#3D2463" transform="translate(182,183)"/>
<path d="M0 0 C1.65 0.33 3.3 0.66 5 1 C4.67 1.99 4.34 2.98 4 4 C1.03 3.505 1.03 3.505 -2 3 C-1.34 2.01 -0.68 1.02 0 0 Z " fill="#1A162C" transform="translate(164,239)"/>
<path d="M0 0 C-1 3 -1 3 -3.4375 4.75 C-4.7059375 5.36875 -4.7059375 5.36875 -6 6 C-6.66 5.67 -7.32 5.34 -8 5 C-2.25 0 -2.25 0 0 0 Z " fill="#061308" transform="translate(224,247)"/>
<path d="M0 0 C1.98 0.495 1.98 0.495 4 1 C3.34 2.32 2.68 3.64 2 5 C1.01 5 0.02 5 -1 5 C-0.67 3.35 -0.34 1.7 0 0 Z " fill="#2E1C48" transform="translate(246,207)"/>
</svg>
